<!DOCTYPE svg PUBLIC "-//W3C//DTD SVG 1.1//EN" "http://www.w3.org/Graphics/SVG/1.1/DTD/svg11.dtd">
<!-- Uploaded to: SVG Repo, www.svgrepo.com, Transformed by: SVG Repo Mixer Tools -->
<svg fill="#F4E1C1" width="256px" height="256px" viewBox="-2.4 -2.4 28.80 28.80" xmlns="http://www.w3.org/2000/svg" stroke="#F4E1C1" stroke-width="0.504" transform="matrix(-1, 0, 0, 1, 0, 0)rotate(0)">
<g id="SVGRepo_bgCarrier" stroke-width="0" transform="translate(12,12), scale(0)">
<path transform="translate(-2.4, -2.4), scale(0.8999999999999999)" d="M16,30.09423082554713C18.225410509304005,29.912568597676675,20.391998314070314,29.112923778296896,22.1810017143542,27.776914821093293C23.856580243102893,26.525610367143646,25.05849371658809,24.722242769519333,25.807823113967366,22.76985149298149C26.479760939581972,21.019105354241997,25.58409699411926,19.004002182934048,26.224510250099378,17.2414803120434C27.11992965606637,14.777139869524945,30.96885613486984,13.119134389620287,30.22832511184754,10.603908051265053C29.517460951228532,8.189445720592552,25.456250653728873,9.098550586380677,23.399810835928093,7.64734023744688C21.64526414762996,6.409173046894822,21.356010765083095,3.2226952904645048,19.24110301413599,2.8503281622678944C17.078090292833767,2.4694912983794572,15.645967406905942,5.3863144501699525,13.512161826096506,5.906443754014809C11.37031419869276,6.42853336021064,8.949305292168779,4.8153039711296195,6.994957016368534,5.835407707417936C5.050228512047548,6.8504902481753716,4.3409495487698635,9.244214091048512,3.3591663914055445,11.205964164830812C2.295692836265542,13.330943911745797,0.3495726823667924,15.535227142784224,0.9962177124996412,17.82178900118331C1.6662166967068464,20.190931345228833,5.079390040668796,20.54872917781801,6.558042211159636,22.51731289305365C7.953630124766147,24.375310125082517,7.453307736049625,27.376837978483763,9.265663976804646,28.8312052620225C11.0732150196864,30.281716503122862,13.690093321509881,30.282790550430693,16,30.09423082554713" fill="#586079" strokewidth="0"/>
</g>
<g id="SVGRepo_tracerCarrier" stroke-linecap="round" stroke-linejoin="round" stroke="#D98B4D" stroke-width="1.584">
<path d="M2.011,5.743A3.106,3.106,0,0,1,5.155,3h8.69a3.106,3.106,0,0,1,3.144,2.743A2.989,2.989,0,0,1,15,8.816V19a2,2,0,0,1-2,2H6a2,2,0,0,1-2-2V8.816A2.989,2.989,0,0,1,2.011,5.743ZM20,19V8.816a2.989,2.989,0,0,0,1.989-3.073A3.106,3.106,0,0,0,18.845,3h-3a3.106,3.106,0,0,1,3.144,2.743A2.989,2.989,0,0,1,17,8.816V19a2,2,0,0,1-2,2h3A2,2,0,0,0,20,19Z"/>
</g>
<g id="SVGRepo_iconCarrier">
<path d="M2.011,5.743A3.106,3.106,0,0,1,5.155,3h8.69a3.106,3.106,0,0,1,3.144,2.743A2.989,2.989,0,0,1,15,8.816V19a2,2,0,0,1-2,2H6a2,2,0,0,1-2-2V8.816A2.989,2.989,0,0,1,2.011,5.743ZM20,19V8.816a2.989,2.989,0,0,0,1.989-3.073A3.106,3.106,0,0,0,18.845,3h-3a3.106,3.106,0,0,1,3.144,2.743A2.989,2.989,0,0,1,17,8.816V19a2,2,0,0,1-2,2h3A2,2,0,0,0,20,19Z"/>
</g>
</svg>