<!DOCTYPE svg PUBLIC "-//W3C//DTD SVG 1.1//EN" "http://www.w3.org/Graphics/SVG/1.1/DTD/svg11.dtd">
<!-- Uploaded to: SVG Repo, www.svgrepo.com, Transformed by: SVG Repo Mixer Tools -->
<svg fill="#F4E1C1" width="256px" height="256px" viewBox="-2.4 -2.4 28.80 28.80" xmlns="http://www.w3.org/2000/svg" stroke="#F4E1C1" stroke-width="0.504" transform="matrix(-1, 0, 0, 1, 0, 0)rotate(0)">
<g id="SVGRepo_bgCarrier" stroke-width="0" transform="translate(12,12), scale(0)"/>
<g id="SVGRepo_tracerCarrier" stroke-linecap="round" stroke-linejoin="round" stroke="#D98B4D" stroke-width="1.584">
<path d="M2.011,5.743A3.106,3.106,0,0,1,5.155,3h8.69a3.106,3.106,0,0,1,3.144,2.743A2.989,2.989,0,0,1,15,8.816V19a2,2,0,0,1-2,2H6a2,2,0,0,1-2-2V8.816A2.989,2.989,0,0,1,2.011,5.743ZM20,19V8.816a2.989,2.989,0,0,0,1.989-3.073A3.106,3.106,0,0,0,18.845,3h-3a3.106,3.106,0,0,1,3.144,2.743A2.989,2.989,0,0,1,17,8.816V19a2,2,0,0,1-2,2h3A2,2,0,0,0,20,19Z"/>
</g>
<g id="SVGRepo_iconCarrier">
<path d="M2.011,5.743A3.106,3.106,0,0,1,5.155,3h8.69a3.106,3.106,0,0,1,3.144,2.743A2.989,2.989,0,0,1,15,8.816V19a2,2,0,0,1-2,2H6a2,2,0,0,1-2-2V8.816A2.989,2.989,0,0,1,2.011,5.743ZM20,19V8.816a2.989,2.989,0,0,0,1.989-3.073A3.106,3.106,0,0,0,18.845,3h-3a3.106,3.106,0,0,1,3.144,2.743A2.989,2.989,0,0,1,17,8.816V19a2,2,0,0,1-2,2h3A2,2,0,0,0,20,19Z"/>
</g>
</svg>